<svg xmlns="http://www.w3.org/2000/svg">
  <title>Cube3 Logo</title>
  <path d="M118,16.82a11.2,11.2,0,0,0-4.79-2L121,6H110.7l.06,0c.22.09,1,.46,1.15,1.13a2,2,0,0,1-.5,1.65L104,17.28a11.29,11.29,0,0,1,6.32-1.38l.2,0,.13,0c2.14.29,3.85,1.41,3.85,3.73v8a6.48,6.48,0,0,1-2.22,4.74l-.54.5.73-.08A10.39,10.39,0,0,0,121.2,23,7.51,7.51,0,0,0,118,16.82" transform="translate(0 0)"/>
  <path class="cls-1" d="M106,30.33a4.9,4.9,0,0,0,1.1-1A3.75,3.75,0,0,0,108,27a4,4,0,0,0-4.11-4c-2.4,0-3.9,1.73-3.9,4.38,0,3.41,2.85,5.81,7.17,6.23A2.2,2.2,0,0,1,105.57,32a1.46,1.46,0,0,1,.45-1.66" transform="translate(0 0)"/>
  <path d="M102.73,12.36a2.33,2.33,0,0,0,1.84-3.78,2.88,2.88,0,0,0-.63-.61.91.91,0,0,1-.26-1,1.3,1.3,0,0,1,.91-1c-2.46.25-4.59,1.69-4.59,3.74a2.67,2.67,0,0,0,2.73,2.62" transform="translate(0 0)"/>
</svg>